<?xml version="1.0" encoding="UTF-8" standalone="no"?>
<svg xmlns:xlink="http://www.w3.org/1999/xlink" height="70.35px" width="116.1px" xmlns="http://www.w3.org/2000/svg">
  <g transform="matrix(1.0, 0.0, 0.0, 1.0, 35.2, 6.75)">
    <use height="63.4" transform="matrix(1.0, 0.0, 0.0, 1.0, 1.2, -4.55)" width="59.15" xlink:href="#shape0"/>
  </g>
  <defs>
    <g id="shape0" transform="matrix(1.0, 0.0, 0.0, 1.0, -1.2, 4.55)">
      <path d="M17.65 25.65 Q26.65 22.4 31.5 18.3 31.95 17.85 32.55 17.8 L33.15 17.85 33.6 18.3 33.7 18.85 33.6 19.7 34.5 20.2 34.95 19.65 35.45 19.35 36.05 19.35 36.5 19.65 36.9 20.15 36.95 20.25 37.05 20.45 Q37.3 21.05 37.15 21.75 35.2 31.8 35.9 42.35 36.75 53.8 22.6 57.65 8.45 61.5 3.7 53.0 -1.1 44.65 3.25 36.9 7.25 29.45 17.65 25.65" fill="#643302" fill-rule="evenodd" stroke="none"/>
      <path d="M32.7 18.55 L32.55 20.1 32.65 20.15 34.75 21.35 35.75 20.1 36.1 20.55 36.15 20.6 36.2 21.35 Q34.2 31.55 34.9 42.2 35.6 52.85 22.35 56.5 9.05 60.1 4.6 52.3 0.1 44.45 4.15 37.2 8.0 30.05 18.0 26.4 27.2 23.05 32.15 18.85 32.4 18.6 32.7 18.55" fill="url(#gradient0)" fill-rule="evenodd" stroke="none"/>
      <path d="M30.95 -4.2 Q33.6 -3.2 36.0 -1.2 37.4 -0.1 38.4 1.4 L39.4 3.4 Q40.6 6.35 40.7 9.5 L40.7 9.55 43.45 8.75 Q52.3 6.75 59.65 13.65 60.35 14.05 60.35 15.3 L60.15 15.85 59.65 16.25 59.05 16.25 Q53.3 14.5 47.2 14.65 43.75 15.3 40.85 17.25 L39.75 18.0 39.6 18.1 41.65 18.7 42.2 19.1 42.4 19.75 42.15 20.35 Q41.9 20.6 41.55 20.65 L36.2 21.5 35.85 21.5 35.6 21.8 31.6 18.8 31.65 18.6 30.45 14.9 30.4 14.8 Q30.15 14.0 30.25 13.1 30.25 12.75 30.55 12.5 30.8 12.2 31.2 12.2 L31.85 12.45 33.8 13.95 34.25 12.2 Q35.4 4.5 28.85 -1.2 L28.8 -1.2 28.7 -1.3 28.65 -1.35 28.0 -2.05 27.85 -2.35 27.7 -2.85 27.65 -3.15 27.85 -3.95 28.0 -4.1 28.45 -4.45 29.05 -4.55 30.8 -4.25 30.95 -4.2" fill="#024701" fill-rule="evenodd" stroke="none"/>
      <path d="M28.85 -2.65 L28.7 -3.1 28.8 -3.4 28.95 -3.5 30.65 -3.2 Q33.15 -2.3 35.4 -0.4 36.7 0.65 37.6 2.0 L38.55 3.8 Q39.65 6.6 39.75 9.6 L39.4 11.25 39.05 11.45 39.0 13.15 38.8 13.95 38.3 14.6 38.5 15.35 39.25 17.2 37.15 18.7 39.35 19.1 41.45 19.7 36.1 20.55 35.75 20.1 35.25 20.7 34.45 19.95 35.35 18.0 32.75 14.4 34.45 15.75 35.3 12.4 36.5 14.45 37.6 13.0 38.05 11.55 Q38.15 10.05 38.55 8.15 38.9 6.2 37.7 3.8 L37.6 3.65 Q36.4 1.3 34.25 -0.15 32.05 -1.7 30.65 -2.1 L28.85 -2.65" fill="#017e01" fill-rule="evenodd" stroke="none"/>
      <path d="M39.75 9.6 L39.8 11.0 39.4 11.25 39.75 9.6 M39.05 11.45 Q41.4 10.3 43.7 9.8 52.1 7.9 59.1 14.45 59.4 14.7 59.4 15.35 53.5 13.55 47.25 13.7 43.45 14.4 40.35 16.45 L39.25 17.2 38.5 15.35 38.3 14.6 38.8 13.95 39.0 13.15 39.05 11.45 M35.25 20.7 L34.75 21.35 32.65 20.15 32.55 20.1 32.7 18.55 31.4 14.6 Q31.2 13.95 31.3 13.25 L32.75 14.4 35.35 18.0 34.45 19.95 35.25 20.7 M35.3 12.4 Q36.5 4.15 29.55 -1.9 L29.45 -1.95 28.85 -2.65 30.65 -2.1 Q32.05 -1.7 34.25 -0.15 36.4 1.3 37.6 3.65 L37.7 3.8 Q38.9 6.2 38.55 8.15 38.15 10.05 38.05 11.55 L37.6 13.0 36.5 14.45 35.3 12.4 M55.2 13.6 L55.6 13.5 55.9 13.65 Q56.05 13.5 56.35 13.4 50.7 8.6 43.7 10.35 42.85 10.55 42.0 10.9 L41.45 10.55 39.85 13.75 40.35 14.0 40.5 13.95 43.7 12.85 Q49.35 11.45 54.95 13.7 L55.2 13.6" fill="#009900" fill-rule="evenodd" stroke="none"/>
      <path d="M55.2 13.6 L54.95 13.7 Q49.35 11.45 43.7 12.85 L40.5 13.95 40.35 14.0 39.85 13.75 41.45 10.55 42.0 10.9 Q42.85 10.55 43.7 10.35 50.7 8.6 56.35 13.4 56.05 13.5 55.9 13.65 L55.6 13.5 55.2 13.6" fill="#01c701" fill-rule="evenodd" stroke="none"/>
      <path d="M18.65 27.5 L18.6 27.5 18.75 27.45 18.8 27.45 18.65 27.5" fill="url(#gradient1)" fill-rule="evenodd" stroke="none"/>
      <path d="M18.8 27.45 Q25.2 25.1 29.65 22.35 L33.95 24.7 Q32.9 32.05 33.25 39.5 L33.25 39.55 33.5 41.7 Q27.05 45.25 18.1 44.1 9.3 43.0 5.8 37.55 L5.9 37.4 Q6.8 35.7 8.15 34.2 9.55 32.6 11.35 31.3 14.4 29.05 18.65 27.5 L18.8 27.45" fill="url(#gradient2)" fill-rule="evenodd" stroke="none"/>
    </g>
    <radialGradient cx="0" cy="0" gradientTransform="matrix(0.0036, -0.0343, 0.0431, 0.0045, 13.6, 50.15)" gradientUnits="userSpaceOnUse" id="gradient0" r="819.2" spreadMethod="pad">
      <stop offset="0.0" stop-color="#fdd7b0"/>
      <stop offset="0.27058823529411763" stop-color="#f6b572"/>
      <stop offset="1.0" stop-color="#eb7807"/>
    </radialGradient>
    <radialGradient cx="0" cy="0" gradientTransform="matrix(0.0031, -0.032, 0.0424, 0.0041, 15.85, 49.3)" gradientUnits="userSpaceOnUse" id="gradient1" r="819.2" spreadMethod="pad">
      <stop offset="0.0" stop-color="#ffffff"/>
      <stop offset="1.0" stop-color="#ffffff"/>
    </radialGradient>
    <radialGradient cx="0" cy="0" gradientTransform="matrix(0.0404, 0.0, 0.0, 0.0404, 24.75, 30.05)" gradientUnits="userSpaceOnUse" id="gradient2" r="819.2" spreadMethod="pad">
      <stop offset="0.0" stop-color="#ffffff" stop-opacity="0.8"/>
      <stop offset="1.0" stop-color="#ffffff" stop-opacity="0.0"/>
    </radialGradient>
  </defs>
</svg>
